<mxfile host="Electron" modified="2023-07-26T15:32:57.136Z" agent="Mozilla/5.0 (Windows NT 10.0; Win64; x64) AppleWebKit/537.36 (KHTML, like Gecko) draw.io/21.6.1 Chrome/112.0.5615.204 Electron/24.6.1 Safari/537.36" etag="Wl382iVoaCk-XVfkhiJi" version="21.6.1" type="device">
  <diagram name="Page-1" id="kW_FzxhE0hHivAe_OKZ2">
    <mxGraphModel dx="1418" dy="820" grid="1" gridSize="7.874" guides="1" tooltips="1" connect="1" arrows="1" fold="1" page="1" pageScale="1" pageWidth="827" pageHeight="1169" math="0" shadow="0">
      <root>
        <mxCell id="0" />
        <mxCell id="1" parent="0" />
        <mxCell id="QgtvmmfQJTr0XwMdYWym-28" value="" style="rounded=0;whiteSpace=wrap;html=1;fillColor=none;" parent="1" vertex="1">
          <mxGeometry x="314.96" y="236.22" width="244.09" height="267.72" as="geometry" />
        </mxCell>
        <mxCell id="QgtvmmfQJTr0XwMdYWym-7" value="" style="rounded=0;whiteSpace=wrap;html=1;" parent="1" vertex="1">
          <mxGeometry x="370.08" y="417.31" width="39.37" height="78.74" as="geometry" />
        </mxCell>
        <mxCell id="QgtvmmfQJTr0XwMdYWym-8" value="" style="rounded=0;whiteSpace=wrap;html=1;" parent="1" vertex="1">
          <mxGeometry x="322.834" y="417.314" width="39.37" height="78.74" as="geometry" />
        </mxCell>
        <mxCell id="QgtvmmfQJTr0XwMdYWym-9" value="" style="rounded=0;whiteSpace=wrap;html=1;" parent="1" vertex="1">
          <mxGeometry x="464.564" y="417.30400000000003" width="39.37" height="78.74" as="geometry" />
        </mxCell>
        <mxCell id="QgtvmmfQJTr0XwMdYWym-10" value="" style="rounded=0;whiteSpace=wrap;html=1;" parent="1" vertex="1">
          <mxGeometry x="417.31800000000004" y="417.30800000000005" width="39.37" height="78.74" as="geometry" />
        </mxCell>
        <mxCell id="QgtvmmfQJTr0XwMdYWym-11" value="" style="rounded=0;whiteSpace=wrap;html=1;" parent="1" vertex="1">
          <mxGeometry x="511.80800000000005" y="417.30800000000005" width="39.37" height="78.74" as="geometry" />
        </mxCell>
        <mxCell id="QgtvmmfQJTr0XwMdYWym-18" value="" style="rounded=0;whiteSpace=wrap;html=1;" parent="1" vertex="1">
          <mxGeometry x="370.074" y="330.71400000000006" width="39.37" height="78.74" as="geometry" />
        </mxCell>
        <mxCell id="QgtvmmfQJTr0XwMdYWym-19" value="" style="rounded=0;whiteSpace=wrap;html=1;" parent="1" vertex="1">
          <mxGeometry x="322.82800000000003" y="330.7180000000001" width="39.37" height="78.74" as="geometry" />
        </mxCell>
        <mxCell id="QgtvmmfQJTr0XwMdYWym-20" value="" style="rounded=0;whiteSpace=wrap;html=1;" parent="1" vertex="1">
          <mxGeometry x="464.55800000000005" y="330.7080000000001" width="39.37" height="78.74" as="geometry" />
        </mxCell>
        <mxCell id="QgtvmmfQJTr0XwMdYWym-21" value="" style="rounded=0;whiteSpace=wrap;html=1;" parent="1" vertex="1">
          <mxGeometry x="417.31200000000007" y="330.7120000000001" width="39.37" height="78.74" as="geometry" />
        </mxCell>
        <mxCell id="QgtvmmfQJTr0XwMdYWym-22" value="" style="rounded=0;whiteSpace=wrap;html=1;" parent="1" vertex="1">
          <mxGeometry x="511.802" y="330.7120000000001" width="39.37" height="78.74" as="geometry" />
        </mxCell>
        <mxCell id="QgtvmmfQJTr0XwMdYWym-25" value="" style="rounded=0;whiteSpace=wrap;html=1;" parent="1" vertex="1">
          <mxGeometry x="464.552" y="244.092" width="39.37" height="78.74" as="geometry" />
        </mxCell>
        <mxCell id="QgtvmmfQJTr0XwMdYWym-27" value="" style="rounded=0;whiteSpace=wrap;html=1;" parent="1" vertex="1">
          <mxGeometry x="511.79600000000005" y="244.09600000000003" width="39.37" height="78.74" as="geometry" />
        </mxCell>
        <mxCell id="QgtvmmfQJTr0XwMdYWym-29" value="" style="endArrow=classic;startArrow=classic;html=1;rounded=0;" parent="1" edge="1">
          <mxGeometry width="50" height="50" relative="1" as="geometry">
            <mxPoint x="315" y="512" as="sourcePoint" />
            <mxPoint x="559" y="512" as="targetPoint" />
          </mxGeometry>
        </mxCell>
        <mxCell id="QgtvmmfQJTr0XwMdYWym-30" value="482" style="edgeLabel;html=1;align=center;verticalAlign=middle;resizable=0;points=[];" parent="QgtvmmfQJTr0XwMdYWym-29" vertex="1" connectable="0">
          <mxGeometry x="0.3934" y="-2" relative="1" as="geometry">
            <mxPoint x="-48" as="offset" />
          </mxGeometry>
        </mxCell>
        <mxCell id="QgtvmmfQJTr0XwMdYWym-31" value="" style="endArrow=classic;startArrow=classic;html=1;rounded=0;" parent="1" edge="1">
          <mxGeometry width="50" height="50" relative="1" as="geometry">
            <mxPoint x="307" y="504" as="sourcePoint" />
            <mxPoint x="307" y="236" as="targetPoint" />
          </mxGeometry>
        </mxCell>
        <mxCell id="QgtvmmfQJTr0XwMdYWym-32" value="450" style="edgeLabel;html=1;align=center;verticalAlign=middle;resizable=0;points=[];" parent="QgtvmmfQJTr0XwMdYWym-31" vertex="1" connectable="0">
          <mxGeometry x="0.3934" y="-2" relative="1" as="geometry">
            <mxPoint x="-10" y="37" as="offset" />
          </mxGeometry>
        </mxCell>
        <mxCell id="QgtvmmfQJTr0XwMdYWym-33" value="" style="endArrow=none;html=1;rounded=0;" parent="1" edge="1">
          <mxGeometry width="50" height="50" relative="1" as="geometry">
            <mxPoint x="260" y="331" as="sourcePoint" />
            <mxPoint x="260" y="354" as="targetPoint" />
          </mxGeometry>
        </mxCell>
      </root>
    </mxGraphModel>
  </diagram>
</mxfile>
